<svg width="16" height="16" viewBox="0 0 16 16" fill="none" xmlns="http://www.w3.org/2000/svg">
<path d="M7 0H0.333333C0.149333 0 0 0.149333 0 0.333333V7C0 7.184 0.149333 7.33333 0.333333 7.33333H7C7.18333 7.33333 7.33333 7.184 7.33333 7V0.333333C7.33333 0.149333 7.18333 0 7 0Z" fill="#777777"/>
<path d="M15.6667 0H9.00008C8.81608 0 8.66675 0.149333 8.66675 0.333333V7C8.66675 7.184 8.81608 7.33333 9.00008 7.33333H15.6667C15.8501 7.33333 16.0001 7.184 16.0001 7V0.333333C16.0001 0.149333 15.8501 0 15.6667 0Z" fill="#777777"/>
<path d="M7 8.66666H0.333333C0.149333 8.66666 0 8.81599 0 8.99999V15.6667C0 15.8507 0.149333 16 0.333333 16H7C7.18333 16 7.33333 15.8507 7.33333 15.6667V8.99999C7.33333 8.81599 7.18333 8.66666 7 8.66666Z" fill="#777777"/>
<path d="M15.6667 8.66666H9.00008C8.81608 8.66666 8.66675 8.81599 8.66675 8.99999V15.6667C8.66675 15.8507 8.81608 16 9.00008 16H15.6667C15.8501 16 16.0001 15.8507 16.0001 15.6667V8.99999C16.0001 8.81599 15.8501 8.66666 15.6667 8.66666Z" fill="#777777"/>
</svg>
