<svg width="60" height="31" viewBox="0 0 60 31" fill="none" xmlns="http://www.w3.org/2000/svg">
<path fill-rule="evenodd" clip-rule="evenodd" d="M42.6398 31L27.0195 18.0127L11.1177 31H42.6398Z" fill="#FFCD11"/>
<path fill-rule="evenodd" clip-rule="evenodd" d="M14.6709 25.8553C15.8423 24.8819 16.0425 23.674 16.0425 22.5919V18.0429H9.6826V24.2164C9.6826 25.0978 8.96637 25.814 8.08291 25.814C7.19945 25.814 6.54318 25.0978 6.54318 24.2164V6.72931C6.54318 5.84618 7.19945 5.13175 8.08291 5.13175C8.96637 5.13175 9.6826 5.84618 9.6826 6.72931V12.939H16.0341V6.49735C16.0341 2.93701 13.7055 0.00674787 8.0297 0C2.20274 0 0 2.94376 0 6.5041V24.7596C0 28.2904 2.80495 30.9609 6.39284 30.9592H8.36332L14.6709 25.8553Z" fill="white"/>
<path fill-rule="evenodd" clip-rule="evenodd" d="M25.3291 14.5748L26.9103 5.48978L28.4813 14.5748H25.3291ZM31.5203 0.534393H22.6288L17.4497 23.8417L27.0945 16.0346L37.151 24.4859L31.5203 0.534393Z" fill="white"/>
<path fill-rule="evenodd" clip-rule="evenodd" d="M39.6117 26.597V6.48833H35.1809V0.562927H51.2234V6.48833H46.7688V30.9592H44.8682L39.6117 26.597Z" fill="white"/>
<path fill-rule="evenodd" clip-rule="evenodd" d="M57.41 2.9484H57.6748C57.9102 2.9484 57.9827 2.72996 57.9827 2.56044C57.9827 2.31127 57.8627 2.21457 57.6748 2.21457H57.41V2.9484ZM57.4092 4.40313H56.8184V1.7784H57.9095C58.3147 1.7784 58.5739 2.02073 58.5739 2.469C58.5739 2.80235 58.4347 3.05151 58.0487 3.11181V3.12433C58.1755 3.13002 58.5614 3.16073 58.5614 3.63289C58.5614 3.80241 58.5739 4.29391 58.6271 4.40313H58.0487C57.9706 4.24499 57.9706 4.06978 57.9706 3.89343C57.9706 3.58511 58.0181 3.31774 57.5609 3.31774H57.4092V4.40313ZM59.5072 3.09923C59.5072 2.08666 58.6866 1.26863 57.6929 1.26863C56.6788 1.26863 55.8661 2.08666 55.8661 3.09923C55.8661 4.11181 56.6788 4.94235 57.6929 4.94235C58.6866 4.94235 59.5072 4.11181 59.5072 3.09923ZM59.9341 3.09931C59.9341 4.35422 58.938 5.3668 57.6953 5.3668C56.4469 5.3668 55.4452 4.35422 55.4452 3.09931C55.4452 1.84439 56.4469 0.84433 57.6953 0.84433C58.938 0.84433 59.9341 1.84439 59.9341 3.09931Z" fill="white"/>
</svg>
